HIERARCHY
ROOT pelvis
{
  OFFSET 0 100 0
  CHANNELS 6 Xposition Yposition Zposition Zrotation Xrotation Yrotation
  JOINT pelvis_right_femur
  {
    OFFSET -10.78128 -3.44521 -0.5502486
    CHANNELS 3 Zrotation Xrotation Yrotation
    JOINT right_femur_tibia
    {
      OFFSET -0.8047443 -44.0398 -0.1307829
      CHANNELS 3 Zrotation Xrotation Yrotation
      JOINT right_tibia_foot
      {
        OFFSET 3.006224 -47.83518 -5
        CHANNELS 3 Zrotation Xrotation Yrotation
        End Site
        {
          OFFSET 0 -5 15
        }
      }
    }
  }
  JOINT pelvis_left_femur
  {
    OFFSET 10.78128 -3.44521 -0.5502486
    CHANNELS 3 Zrotation Xrotation Yrotation
    JOINT left_femur_tibia
    {
      OFFSET 0.8047443 -44.0398 -0.1307829
      CHANNELS 3 Zrotation Xrotation Yrotation
      JOINT left_tibia_foot
      {
        OFFSET -4.370144 -48.10324 -4.275266
        CHANNELS 3 Zrotation Xrotation Yrotation
        End Site
        {
          OFFSET 0 -5 15
        }
      }
    }
  }
  JOINT pelvis_spine1
  {
    OFFSET 0 6.468898 -3.129235
    CHANNELS 3 Zrotation Xrotation Yrotation
    JOINT spine1
    {
      OFFSET 0 23.15396 4.99043
      CHANNELS 3 Zrotation Xrotation Yrotation
      JOINT spine2
      {
        OFFSET 0 20.79997 -5.064912
        CHANNELS 3 Zrotation Xrotation Yrotation
        JOINT neck
        {
          OFFSET 0 14.38658 9.616178
          CHANNELS 3 Zrotation Xrotation Yrotation
          End Site
          {
            OFFSET 0 20 0
          }
        }
      }
      JOINT right_manubrium
      {
        OFFSET -5.722621 16.35077 3.967754
        CHANNELS 3 Zrotation Xrotation Yrotation
        JOINT right_clavicle
        {
          OFFSET -13.16364 1.694482 -4.693211
          CHANNELS 3 Zrotation Xrotation Yrotation
          JOINT right_humerus
          {
            OFFSET -28.5034 -0.3100689 -2.792744
            CHANNELS 3 Zrotation Xrotation Yrotation
            JOINT right_radius
            {
              OFFSET -25.15693 0.02248979 -1.271978
              CHANNELS 3 Zrotation Xrotation Yrotation
              End Site
              {
                OFFSET -15 0 0
              }
            }
          }
        }
      }
      JOINT left_manubrium
      {
        OFFSET 5.722621 16.35077 3.967754
        CHANNELS 3 Zrotation Xrotation Yrotation
        JOINT left_clavicle
        {
          OFFSET 13.16364 1.694482 -4.693211
          CHANNELS 3 Zrotation Xrotation Yrotation
          JOINT left_humerus
          {
            OFFSET 29.39168 -1.063119 -2.237045
            CHANNELS 3 Zrotation Xrotation Yrotation
            JOINT left_radius
            {
              OFFSET 24.59957 -0.9528479 0.9047498
              CHANNELS 3 Zrotation Xrotation Yrotation
              End Site
              {
                OFFSET 15 -0 -0
              }
            }
          }
        }
      }
    }
  }
}
MOTION
Frames: 21
Frame Time: 0.0416666666667
1444.945 106.8579 2628.642 7.100235 -2.917107 54.89839 -0.09983237 -17.16253 1.416765 -0 35.20958 -0 1.59463 -1.02638 -8.328389 -5.575575 9.812708 -8.277841 -0 14.19847 -0 -4.167927 -18.65983 14.16209 -3.099342 0.3598696 3.167257 0.2608149 10.08582 -7.081332 1.78692 22.53176 6.434909 1.895078 -16.17614 8.213949 2.060944 -15.96866 10.41438 89.51397 25.47685 -18.91223 -0 0 12.07003 -23.93596 14.29885 11.61808 5.171994 -20.73677 -5.668119 -83.02068 24.4424 9.078642 0 0 -23.77138 -0.5623772 8.473702 14.03866
1449.797 106.0745 2631.878 6.57061 -2.688335 55.69277 0.2238876 -21.50724 0.6675273 -0 27.68107 -0 1.22941 -1.961553 -8.609534 -5.312566 13.1699 -7.97049 -0 13.07786 -0 -4.623159 -19.89386 13.46508 -2.907409 0.4530849 2.610466 0.628476 9.65858 -7.541125 1.863565 22.53622 6.346958 1.831172 -16.09251 8.24457 1.619614 -15.18429 10.19961 90.32801 25.17466 -20.36806 -0 0 10.5746 -23.31712 14.25704 10.98482 5.879101 -21.6333 -5.622176 -81.63771 23.93229 6.065251 0 0 -26.42452 0.274397 8.807381 12.64055
1454.774 104.9997 2635.334 5.980614 -2.54803 56.33663 0.6868632 -24.74799 0.2397167 -0 21.26934 -0 0.7498305 -2.839074 -8.820218 -4.992943 15.88688 -7.802922 -0 13.52699 -0 -5.336757 -20.45441 12.76531 -2.627368 0.5380142 2.133191 0.9516768 9.178541 -7.845503 1.985798 22.55643 6.224107 1.783919 -16.07946 8.285289 1.319242 -14.35778 9.994881 90.90807 25.06164 -21.4519 -0 0 9.203215 -22.52 14.18604 10.33511 6.415213 -22.1816 -5.434537 -80.69183 23.56839 3.693371 0 0 -28.20629 1.020059 9.116633 11.47974
1459.894 103.8536 2639.018 5.394634 -2.523298 56.81669 1.341777 -26.58599 0.2659065 -0 16.68813 -0 0.1174432 -3.640014 -8.977442 -4.621126 17.82482 -7.869622 -0 15.8843 -0 -6.27995 -20.20175 12.13902 -2.274154 0.6109713 1.754421 1.221082 8.679349 -7.972059 2.149801 22.61496 6.062488 1.759708 -16.14113 8.326066 1.243106 -13.51468 9.820653 91.21805 25.23644 -22.11865 -0 0 8.004584 -21.48309 14.0876 9.666303 6.691166 -22.30482 -5.122449 -80.25227 23.5475 2.171374 0 0 -28.88231 1.543647 9.43368 10.7589
1465.155 102.8817 2642.913 4.928043 -2.644643 57.12194 2.176161 -26.72865 0.7850241 -0 14.42031 -0 -0.6743436 -4.347035 -9.087968 -4.209459 18.80102 -8.18593 -0 20.33981 -0 -7.354865 -19.05926 11.71627 -1.87313 0.6746265 1.504778 1.415635 8.2187 -7.892902 2.356082 22.74355 5.848629 1.758532 -16.23621 8.350999 1.417192 -12.70106 9.69544 91.23582 25.69459 -22.30264 -0 0 7.030936 -20.23825 13.95405 8.993931 6.654534 -21.97677 -4.723777 -80.34966 23.9185 1.612072 0 0 -28.3014 1.808135 9.784415 10.52495
1470.528 102.308 2646.98 4.751789 -2.939374 57.24239 3.073132 -25.01148 1.68587 -0 14.51069 -0 -1.573918 -4.958067 -9.147719 -3.797967 18.6184 -8.642068 -0 26.80916 -0 -8.377759 -17.08608 11.66198 -1.466163 0.7402602 1.429678 1.505159 7.891746 -7.592489 2.602399 22.97589 5.564393 1.771683 -16.27195 8.335211 1.785204 -11.99685 9.643527 90.97457 26.28813 -21.95668 -0 0 6.331921 -18.95043 13.77987 8.35683 6.318024 -21.27271 -4.310359 -80.9577 24.51653 1.972958 0 0 -26.52411 1.901362 10.16788 10.61447
1475.951 102.2742 2651.154 5.029582 -3.407237 57.16945 3.853463 -21.54182 2.73828 -0 16.37055 -0 -2.447261 -5.540963 -9.13843 -3.446094 17.09405 -9.0075 -0 34.78466 -0 -9.11756 -14.53085 12.1098 -1.109205 0.8265285 1.590441 1.463908 7.812331 -7.091484 2.870638 23.32279 5.205131 1.784116 -16.14318 8.249844 2.216033 -11.5239 9.698682 90.48418 26.76686 -21.10346 -0 0 5.971002 -17.89804 13.58095 7.819133 5.774287 -20.38398 -3.978172 -81.96167 25.01166 3.042401 0 0 -23.92838 1.991875 10.53622 10.71847
1481.323 102.79 2655.344 5.785245 -3.985425 56.89958 4.384559 -16.75947 3.714296 -0 18.826 -0 -3.086508 -6.282593 -9.023691 -3.18466 14.09128 -9.02987 -0 43.22588 -0 -9.395801 -11.80862 13.07169 -0.8571122 0.9504415 2.051718 1.292061 8.049588 -6.461002 3.113779 23.73688 4.807376 1.783958 -15.81957 8.078557 2.564175 -11.43331 9.892746 89.81426 26.93177 -19.85615 -0 0 6.062536 -17.36508 13.40753 7.47094 5.170128 -19.55233 -3.801705 -83.17325 25.11635 4.547943 0 0 -21.16507 2.181323 10.78461 10.61531
1486.526 103.7118 2659.447 6.803116 -4.535449 56.4361 4.643397 -11.35824 4.47354 -0 20.49434 -0 -3.277642 -7.430486 -8.74785 -2.965645 9.607399 -8.571078 -0 50.59067 -0 -9.181376 -9.398935 14.3899 -0.7420125 1.112649 2.842831 1.028977 8.559044 -5.810943 3.2595 24.1018 4.459518 1.771981 -15.40961 7.834721 2.740228 -11.85782 10.22696 88.96926 26.78114 -18.37646 -0 0 6.769999 -17.51061 13.32695 7.423728 4.652084 -18.95783 -3.781298 -84.41254 24.79095 6.318426 0 0 -18.92968 2.375972 10.77729 10.38435
1491.493 104.7673 2663.38 7.697743 -4.886326 55.78915 4.681714 -6.087643 4.94054 -0 20.34373 -0 -2.9105 -9.097807 -8.242374 -2.672449 3.912484 -7.663634 -0 55.16662 -0 -8.594704 -7.708339 15.78786 -0.7598726 1.287685 3.90917 0.7390073 9.180475 -5.248993 3.243087 24.278 4.266764 1.760767 -15.1149 7.560972 2.725394 -12.84124 10.64829 87.91952 26.48409 -16.79699 -0 0 8.213031 -18.32089 13.37206 7.783631 4.323827 -18.64917 -3.839149 -85.57606 24.22654 8.322731 0 0 -17.66189 2.355954 10.4257 10.32754
1496.26 105.6373 2667.109 8.132974 -4.921182 54.9855 4.559212 -1.466605 5.06849 -0 18.19763 -0 -2.064641 -11.10455 -7.452773 -2.196623 -2.421581 -6.474223 -0 55.73005 -0 -7.829172 -6.925659 17.0078 -0.8745034 1.429961 5.102433 0.4740444 9.715191 -4.825211 3.054432 24.18591 4.284548 1.765625 -15.0991 7.309763 2.541886 -14.29158 11.05824 86.65816 26.22238 -15.15502 -0 0 10.3516 -19.64181 13.49303 8.595004 4.224189 -18.54036 -3.867597 -86.64963 23.65504 10.58128 0 0 -17.31659 1.990197 9.76683 10.66928
1500.95 106.0744 2670.652 8.000418 -4.642292 54.08305 4.308496 2.461614 4.882947 -0 14.90536 -0 -0.9982219 -13.05923 -6.388301 -1.518752 -8.721619 -5.255826 -0 52.18127 -0 -7.077081 -6.924123 17.94267 -1.035498 1.49515 6.236325 0.2457003 10.0135 -4.499361 2.757376 23.85919 4.47913 1.796885 -15.3936 7.123005 2.244029 -15.99805 11.35413 85.21768 26.09403 -13.37123 -0 0 12.97329 -21.2143 13.56694 9.787693 4.310696 -18.43703 -3.775132 -87.71152 23.22954 13.11453 0 0 -17.33469 1.33458 8.967825 11.40394
1505.71 105.9884 2674.055 7.418145 -4.158948 53.1635 3.941338 6.060011 4.533927 -0 11.94191 -0 -0.01600172 -14.60903 -5.153116 -0.735495 -14.46842 -4.293809 -0 45.62758 -0 -6.495854 -7.325448 18.64719 -1.199232 1.463762 7.166999 0.03342163 10.01262 -4.171329 2.457031 23.41965 4.755456 1.856133 -15.90857 7.025582 1.926533 -17.69994 11.47432 83.64017 26.13027 -11.31738 -0 0 15.78488 -22.7221 13.47709 11.18171 4.469763 -18.1035 -3.506147 -88.90125 23.03476 15.93077 0 0 -16.92951 0.5318296 8.236897 12.40596
1510.655 105.449 2677.369 6.609946 -3.61472 52.30663 3.470354 9.654531 4.233518 -0 10.62393 -0 0.7076019 -15.56736 -3.918901 -0.02448335 -19.33714 -3.800455 -0 37.82095 -0 -6.177388 -7.739841 19.221 -1.343187 1.350505 7.832471 -0.1859724 9.735693 -3.762943 2.242157 22.99812 5.024364 1.935355 -16.50265 7.030023 1.692015 -19.15915 11.41716 81.99279 26.31324 -8.973604 -0 0 18.48942 -23.91154 13.19781 12.55789 4.578825 -17.39259 -3.059453 -90.29395 23.08512 18.92765 0 0 -15.59083 -0.292164 7.698217 13.54326
1515.854 104.6268 2680.653 5.807216 -3.126421 51.57677 2.914849 13.12959 4.116893 -0 11.58364 -0 1.20138 -15.81233 -2.865452 0.4215018 -23.05498 -3.817242 -0 30.45126 -0 -6.109336 -7.982721 19.69221 -1.468815 1.192764 8.235894 -0.4226268 9.285034 -3.279099 2.149675 22.67294 5.247258 2.020461 -17.0388 7.139429 1.588776 -20.20588 11.22837 80.43728 26.55401 -6.555053 -0 0 20.79924 -24.71985 12.80709 13.7371 4.576959 -16.35706 -2.509613 -91.75872 23.27835 21.77723 0 0 -13.41034 -1.012849 7.339428 14.64165
1521.343 103.7301 2683.964 5.213207 -2.773967 51.02901 2.298224 15.96377 4.17666 -0 14.85957 -0 1.609374 -15.16955 -2.141712 0.4576607 -25.32044 -4.224758 -0 24.7357 -0 -6.173379 -8.085779 20.00039 -1.593251 1.026523 8.407381 -0.6792769 8.823208 -2.799791 2.167159 22.46259 5.430541 2.09611 -17.40931 7.343539 1.592288 -20.76027 10.97517 79.24479 26.70785 -4.474204 -0 0 22.45622 -25.27457 12.43266 14.61357 4.476224 -15.22888 -1.998762 -92.9659 23.42328 23.99742 0 0 -10.94759 -1.478665 7.071288 15.45809
1527.125 102.9718 2687.344 4.979746 -2.611269 50.71934 1.649902 17.5776 4.318452 -0 20.26865 -0 2.048019 -13.46944 -1.858011 0.02718055 -25.86616 -4.845385 -0 21.28173 -0 -6.206704 -8.166138 20.04973 -1.736304 0.8670156 8.37468 -0.9552934 8.524578 -2.43198 2.253713 22.34892 5.593832 2.147514 -17.5509 7.613967 1.65094 -20.83764 10.72506 78.69947 26.65326 -3.163131 -0 0 23.29803 -25.75641 12.19653 15.14864 4.313768 -14.28733 -1.687918 -93.5769 23.36094 25.20913 0 0 -8.827424 -1.579034 6.821064 15.80154
1533.16 102.5535 2690.796 5.173075 -2.659987 50.7058 1.003627 17.61522 4.453883 -0 27.55446 -0 2.524447 -10.71658 -2.079178 -0.8316977 -24.56998 -5.545014 -0 20.09016 -0 -6.086451 -8.32358 19.76814 -1.911614 0.708029 8.151517 -1.235317 8.51599 -2.27162 2.355646 22.30135 5.749288 2.164196 -17.46267 7.903522 1.745915 -20.53615 10.53625 78.96174 26.37544 -2.901954 -0 0 23.30694 -26.24986 12.18513 15.35454 4.102292 -13.73971 -1.698291 -93.45915 23.07901 25.3567 0 0 -7.454642 -1.355576 6.58018 15.70476
1539.341 102.6364 2694.263 5.746883 -2.885818 51.03364 0.3972265 16.0056 4.542816 -0 36.1534 -0 2.938867 -7.22671 -2.791551 -1.998093 -21.53921 -6.27095 -0 20.64166 -0 -5.779466 -8.634769 19.15251 -2.125135 0.5399378 7.743312 -1.473492 8.832766 -2.387011 2.414259 22.2947 5.902541 2.149079 -17.21595 8.152023 1.911174 -20.00505 10.45302 79.98725 25.99808 -3.749854 -0 0 22.59148 -26.68283 12.42615 15.2771 3.82791 -13.68261 -2.071438 -92.74392 22.75747 24.70103 0 0 -6.996128 -1.034444 6.404509 15.46679
1545.486 103.2771 2697.631 6.538511 -3.184023 51.70504 -0.118841 12.89025 4.570123 -0 44.80871 -0 3.14986 -3.652706 -3.862903 -3.28052 -17.14737 -7.020235 -0 22.00227 -0 -5.33794 -9.202629 18.2984 -2.375696 0.3713598 7.165547 -1.594704 9.39385 -2.804785 2.380896 22.31808 6.058442 2.12133 -16.93172 8.304833 2.192536 -19.39688 10.49158 81.53821 25.7314 -5.558398 -0 0 21.33577 -26.87675 12.86608 14.97561 3.500679 -14.115 -2.749229 -91.69739 22.70527 23.59033 0 0 -7.506435 -0.91667 6.382562 15.48158
1551.389 104.3559 2700.784 7.305751 -3.407677 52.6541 -0.4810524 8.531008 4.494563 -0 51.53433 -0 3.078451 -0.8124512 -5.05815 -4.442153 -11.97734 -7.762492 -0 23.00213 -0 -4.856256 -10.17393 17.38123 -2.649147 0.2337355 6.461451 -1.528808 10.01133 -3.489583 2.246073 22.36777 6.215404 2.100419 -16.71517 8.343697 2.564148 -18.81325 10.61694 83.28546 25.72467 -8.018516 -0 0 19.75713 -26.6865 13.3773 14.50685 3.214921 -14.96235 -3.578958 -90.51558 23.13824 22.17386 0 0 -9.014562 -1.154583 6.568774 15.91095
